#!OML:ASF E:\motion texture\Top Level 1\Subject 1\Session 1\male.ASF
:FULLY-SPECIFIED
:DEGREES
256
root 1.15207 18.0589 4.14784 -340.069 -62.5297 344.825
lowerback 3.51434 5.88524 7.20674
upperback -0.0236022 8.13267 3.03964
thorax -1.43092 3.98549 -1.19132
lowerneck -14.271 -11.2915 -11.2597
upperneck 8.29594 -14.842 13.5344
head 6.74151 -6.67566 4.46238
rclavicle 1.02076e-013 7.95139e-015
rhumerus 28.7067 6.88293 -57.0274
rradius 52.5258
rwrist -10.1931
rhand -5.96121 -48.3316
rfingers 7.12502
rthumb 19.8696 -77.3358
lclavicle 1.02076e-013 7.95139e-015
lhumerus -38.8246 17.6879 68.6752
lradius 41.3087
lwrist -1.50215
lhand -7.9997 27.12
lfingers 7.12502
lthumb 17.9091 56.3154
rfemur -19.0924 -9.22169 30.459
rtibia 20.5614
rfoot -6.74069 -20.5842
rtoes 22.4663
lfemur -24.1753 -12.266 -3.33793
ltibia 50.0451
lfoot -3.50829 -5.51166
ltoes -18.6844
257
root 0.981112 18.0785 4.1445 -339.691 -62.8186 344.457
lowerback 3.3245 5.92482 7.23292
upperback -0.0931801 8.17226 3.02717
thorax -1.38903 4.00527 -1.20114
lowerneck -14.2612 -11.2288 -11.2243
upperneck 8.50571 -14.7809 13.4796
head 6.79154 -6.6445 4.44706
rclavicle -9.651e-014 2.38542e-014
rhumerus 27.7818 7.38616 -57.115
rradius 52.9446
rwrist -9.58854
rhand -6.39468 -48.2925
rfingers 7.12502
rthumb 19.4529 -77.3394
lclavicle -9.651e-014 2.38542e-014
lhumerus -39.3051 18.065 68.5373
lradius 40.7776
lwrist -2.22266
lhand -7.84067 26.9043
lfingers 7.12502
lthumb 18.0621 56.0856
rfemur -18.2848 -8.95955 30.7892
rtibia 20.1159
rfoot -7.05886 -20.333
rtoes 22.2295
lfemur -24.5654 -12.0099 -3.50499
ltibia 49.5357
lfoot -3.78803 -4.93259
ltoes -18.5671
258
root 0.811745 18.0967 4.14221 -339.298 -63.132 344.088
lowerback 3.13202 5.96663 7.25636
upperback -0.162308 8.21422 3.01112
thorax -1.34483 4.02633 -1.21259
lowerneck -14.2549 -11.1613 -11.1893
upperneck 8.71566 -14.7123 13.4212
head 6.84111 -6.60991 4.43171
rclavicle -1.76918e-014 7.95139e-015
rhumerus 26.8001 7.93433 -57.2261
rradius 53.4008
rwrist -8.98579
rhand -6.8157 -48.2371
rfingers 7.12502
rthumb 19.0481 -77.3243
lclavicle -1.76918e-014 7.95139e-015
lhumerus -39.7741 18.4507 68.399
lradius 40.2117
lwrist -2.99934
lhand -7.66411 26.6785
lfingers 7.12502
lthumb 18.232 55.8441
rfemur -17.4834 -8.68994 31.1035
rtibia 19.6573
rfoot -7.3623 -20.0798
rtoes 21.9803
lfemur -24.9402 -11.7336 -3.69768
ltibia 48.9321
lfoot -4.09335 -4.34152
ltoes -18.438
259
root 0.644029 18.1132 4.14099 -338.886 -63.4698 343.712
lowerback 2.93717 6.01008 7.27862
upperback -0.230615 8.25786 2.99348
thorax -1.29822 4.04828 -1.22448
lowerneck -14.2538 -11.0896 -11.1569
upperneck 8.92713 -14.6361 13.3588
head 6.89104 -6.57183 4.41638
rclavicle -9.01488e-014 -2.78299e-014
rhumerus 25.7698 8.52061 -57.3675
rradius 53.8799
rwrist -8.37697
rhand -7.22245 -48.1595
rfingers 7.12502
rthumb 18.6569 -77.2848
lclavicle -9.01488e-014 -2.78299e-014
lhumerus -40.2324 18.8475 68.261
lradius 39.6143
lwrist -3.82866
lhand -7.47018 26.4427
lfingers 7.12502
lthumb 18.4186 55.5907
rfemur -16.6933 -8.41411 31.4036
rtibia 19.1936
rfoot -7.65432 -19.8233
rtoes 21.7183
lfemur -25.3015 -11.4379 -3.91215
ltibia 48.2392
lfoot -4.41608 -3.74595
ltoes -18.2933
260
root 0.477654 18.1282 4.14068 -338.452 -63.8335 343.325
lowerback 2.73943 6.05673 7.29646
upperback -0.29719 8.30504 2.97549
thorax -1.24844 4.07214 -1.23371
lowerneck -14.256 -11.0138 -11.1263
upperneck 9.13767 -14.5528 13.2922
head 6.94026 -6.53069 4.40094
rclavicle 5.86415e-014 1.19271e-014
rhumerus 24.6954 9.13461 -57.546
rradius 54.3664
rwrist -7.76316
rhand -7.62316 -48.0615
rfingers 7.12502
rthumb 18.2714 -77.2234
lclavicle 5.86415e-014 1.19271e-014
lhumerus -40.6785 19.2536 68.1243
lradius 38.9877
lwrist -4.70867
lhand -7.26478 26.2038
lfingers 7.12502
lthumb 18.6161 55.3331
rfemur -15.9124 -8.12961 31.6906
rtibia 18.727
rfoot -7.93676 -19.5627
rtoes 21.4427
lfemur -25.6457 -11.1211 -4.14473
ltibia 47.46
lfoot -4.74891 -3.15322
ltoes -18.1359
261
root 0.312794 18.1414 4.14128 -337.993 -64.2215 342.924
lowerback 2.54216 6.10444 7.3159
upperback -0.364574 8.35362 2.95437
thorax -1.19893 4.09662 -1.24681
lowerneck -14.2631 -10.9326 -11.0942
upperneck 9.34932 -14.461 13.2215
head 6.98927 -6.48563 4.38503
rclavicle 2.22639e-014 -7.15625e-015
rhumerus 23.5857 9.76805 -57.7736
rradius 54.8422
rwrist -7.14542
rhand -8.01436 -47.9445
rfingers 7.12502
rthumb 17.895 -77.1411
lclavicle 2.22639e-014 -7.15625e-015
lhumerus -41.1162 19.6672 67.9811
lradius 38.3362
lwrist -5.63636
lhand -7.04499 25.9592
lfingers 7.12502
lthumb 18.8276 55.068
rfemur -15.1477 -7.8382 31.965
rtibia 18.2655
rfoot -8.21244 -19.2982
rtoes 21.1522
lfemur -25.9793 -10.7855 -4.39225
ltibia 46.6024
lfoot -5.08157 -2.56976
ltoes -17.9627
262
root 0.149267 18.1529 4.14269 -337.506 -64.6331 342.508
lowerback 2.34393 6.15402 7.33349
upperback -0.4315 8.40436 2.93212
thorax -1.14829 4.1222 -1.25965
lowerneck -14.2747 -10.847 -11.0624
upperneck 9.56078 -14.3618 13.1469
head 7.0379 -6.43722 4.36884
rclavicle 3.08116e-015 5.1684e-014
rhumerus 22.4444 10.4099 -58.0544
rradius 55.2932
rwrist -6.52386
rhand -8.39786 -47.8049
rfingers 7.12502
rthumb 17.526 -77.0349
lclavicle 3.08116e-015 5.1684e-014
lhumerus -41.5442 20.0925 67.8327
lradius 37.6612
lwrist -6.617
lhand -6.80785 25.7102
lfingers 7.12502
lthumb 19.0556 54.7968
rfemur -14.3987 -7.54302 32.2269
rtibia 17.8114
rfoot -8.48324 -19.0276
rtoes 20.8499
lfemur -26.3023 -10.4326 -4.65228
ltibia 45.6707
lfoot -5.40601 -2.0013
ltoes -17.7644
263
root -0.0128379 18.1625 4.14483 -336.991 -65.0656 342.075
lowerback 2.14616 6.20515 7.35
upperback -0.499516 8.4571 2.90849
thorax -1.09879 4.14868 -1.27317
lowerneck -14.289 -10.7573 -11.0304
upperneck 9.77147 -14.2558 13.0682
head 7.08573 -6.38585 4.35228
rclavicle -1.12313e-014 2.14687e-014
rhumerus 21.2732 11.0525 -58.3912
rradius 55.7059
rwrist -5.89886
rhand -8.76699 -47.6442
rfingers 7.12502
rthumb 17.1707 -76.9055
lclavicle -1.12313e-014 2.14687e-014
lhumerus -41.9629 20.5251 67.6783
lradius 36.9657
lwrist -7.64589
lhand -6.55364 25.4558
lfingers 7.12502
lthumb 19.3001 54.518
rfemur -13.6682 -7.24805 32.4764
rtibia 17.3659
rfoot -8.74766 -18.7511
rtoes 20.5311
lfemur -26.6198 -10.0645 -4.92214
ltibia 44.6711
lfoot -5.71574 -1.45464
ltoes -17.5748
264
root -0.173786 18.1704 4.14774 -336.443 -65.5203 341.621
lowerback 1.949 6.25717 7.36662
upperback -0.567926 8.51096 2.88323
thorax -1.04963 4.17567 -1.2882
lowerneck -14.3102 -10.6626 -10.9967
upperneck 9.98366 -14.1417 12.9846
head 7.13385 -6.33071 4.33477
rclavicle 2.5345e-014 -5.1684e-014
rhumerus 20.0821 11.6911 -58.787
rradius 56.0638
rwrist -5.27171
rhand -9.12225 -47.4544
rfingers 7.12502
rthumb 16.8288 -76.7452
lclavicle 2.5345e-014 -5.1684e-014
lhumerus -42.3741 20.9663 67.5152
lradius 36.2539
lwrist -8.71958
lhand -6.2854 25.1987
lfingers 7.12502
lthumb 19.558 54.2349
rfemur -12.9562 -6.95387 32.7139
rtibia 16.9331
rfoot -9.00824 -18.4658
rtoes 20.1975
lfemur -26.9297 -9.6808 -5.19956
ltibia 43.6055
lfoot -5.99849 -0.937325
ltoes -17.3902
265
root -0.333581 18.1764 4.1513 -335.86 -65.994 341.143
lowerback 1.75488 6.30956 7.38339
upperback -0.636762 8.56552 2.8574
thorax -1.00241 4.20287 -1.30399
lowerneck -14.3367 -10.5637 -10.9619
upperneck 10.196 -14.0205 12.8966
head 7.1818 -6.27236 4.31652
rclavicle -6.35117e-014 -2.46493e-014
rhumerus 18.8737 12.3201 -59.2406
rradius 56.3538
rwrist -4.64191
rhand -9.45567 -47.2359
rfingers 7.12502
rthumb 16.5078 -76.5536
lclavicle -6.35117e-014 -2.46493e-014
lhumerus -42.7784 21.4171 67.3424
lradius 35.5282
lwrist -9.83839
lhand -6.00076 24.9356
lfingers 7.12502
lthumb 19.8316 53.9439
rfemur -12.2626 -6.66513 32.9401
rtibia 16.5152
rfoot -9.26571 -18.171
rtoes 19.8485
lfemur -27.2336 -9.28483 -5.48144
ltibia 42.4804
lfoot -6.24362 -0.459328
ltoes -17.1835
266
root -0.492342 18.1806 4.15546 -335.237 -66.4851 340.635
lowerback 1.56241 6.36254 7.40174
upperback -0.706521 8.62096 2.83054
thorax -0.956556 4.23038 -1.32162
lowerneck -14.3692 -10.4604 -10.9252
upperneck 10.4089 -13.8923 12.8051
head 7.22991 -6.21074 4.29767
rclavicle 5.87409e-014 7.95139e-016
rhumerus 17.6512 12.935 -59.7504
rradius 56.565
rwrist -4.00954
rhand -9.7585 -46.9883
rfingers 7.12502
rthumb 16.2162 -76.3301
lclavicle 5.87409e-014 7.95139e-016
lhumerus -43.1756 21.8748 67.1588
lradius 34.7924
lwrist -10.9986
lhand -5.69907 24.6699
lfingers 7.12502
lthumb 20.1216 53.6478
rfemur -11.589 -6.38111 33.1568
rtibia 16.1137
rfoot -9.52075 -17.8679
rtoes 19.4831
lfemur -27.5346 -8.87861 -5.76364
ltibia 41.3029
lfoot -6.44936 -0.0252086
ltoes -16.9549
267
root -0.650175 18.1829 4.1602 -334.572 -66.9922 340.094
lowerback 1.37232 6.41583 7.4215
upperback -0.776895 8.67696 2.80304
thorax -0.912271 4.25804 -1.34067
lowerneck -14.4069 -10.3531 -10.8852
upperneck 10.6213 -13.7576 12.7089
head 7.27757 -6.14619 4.27756
rclavicle 8.38374e-014 2.38542e-014
rhumerus 16.4179 13.5305 -60.3157
rradius 56.6856
rwrist -3.37834
rhand -10.0391 -46.7079
rfingers 7.12502
rthumb 15.946 -76.0715
lclavicle 8.38374e-014 2.38542e-014
lhumerus -43.566 22.3386 66.9641
lradius 34.0498
lwrist -12.1967
lhand -5.38154 24.4013
lfingers 7.12502
lthumb 20.4268 53.3469
rfemur -10.9352 -6.10475 33.3634
rtibia 15.7312
rfoot -9.77511 -17.556
rtoes 19.1031
lfemur -27.8323 -8.46614 -6.04429
ltibia 40.0807
lfoot -6.61394 0.368805
ltoes -16.7052
268
root -0.807182 18.1833 4.16547 -333.86 -67.5128 339.513
lowerback 1.18609 6.46867 7.44384
upperback -0.847555 8.73264 2.77576
thorax -0.870067 4.28538 -1.36107
lowerneck -14.4518 -10.2417 -10.8413
upperneck 10.8345 -13.6164 12.6078
head 7.32554 -6.0786 4.25593
rclavicle 1.78906e-015 -2.82274e-014
rhumerus 15.1787 14.1065 -60.9314
rradius 56.7088
rwrist -2.75789
rhand -10.2903 -46.4013
rfingers 7.12502
rthumb 15.704 -75.7841
lclavicle 1.78906e-015 -2.82274e-014
lhumerus -43.9505 22.8103 66.757
lradius 33.304
lwrist -13.4302
lhand -5.04709 24.1308
lfingers 7.12502
lthumb 20.7482 53.0416
rfemur -10.3001 -5.83643 33.5616
rtibia 15.3685
rfoot -10.028 -17.2363
rtoes 18.7071
lfemur -28.1268 -8.05147 -6.31928
ltibia 38.8226
lfoot -6.73676 0.722632
ltoes -16.4611
269
root -0.963429 18.1819 4.17121 -333.093 -68.0444 338.886
lowerback 1.0046 6.52071 7.46975
upperback -0.91856 8.78762 2.74929
thorax -0.830463 4.31218 -1.38288
lowerneck -14.5035 -10.1266 -10.7944
upperneck 11.0476 -13.4689 12.5034
head 7.37369 -6.00808 4.2334
rclavicle 6.14245e-014 1.63003e-014
rhumerus 13.9361 14.6572 -61.5966
rradius 56.6256
rwrist -2.15143
rhand -10.5174 -46.0657
rfingers 7.12502
rthumb 15.4854 -75.4656
lclavicle 6.14245e-014 1.63003e-014
lhumerus -44.3297 23.2861 66.5386
lradius 32.5597
lwrist -14.6926
lhand -4.69574 23.8585
lfingers 7.12502
lthumb 21.0857 52.7321
rfemur -9.68454 -5.57708 33.7527
rtibia 15.0284
rfoot -10.2814 -16.909
rtoes 18.2978
lfemur -28.42 -7.63873 -6.58469
ltibia 37.5387
lfoot -6.82263 1.04113
ltoes -16.2345
